<svg xmlns="http://www.w3.org/2000/svg" width="100" height="100" viewBox="0 0 100 100">
  <defs>
    <clipPath id="bowl-clip"><circle cx="50" cy="50" r="48"/></clipPath>
    <radialGradient id="bowl-shine" cx="32%" cy="26%" r="75%">
      <stop offset="0%" stop-color="#FFFFFF" stop-opacity="0.55"/>
      <stop offset="22%" stop-color="#FFFFFF" stop-opacity="0.18"/>
      <stop offset="55%" stop-color="#FFFFFF" stop-opacity="0"/>
      <stop offset="100%" stop-color="#000000" stop-opacity="0.28"/>
    </radialGradient>
  </defs>
  
  <circle cx="50" cy="50" r="48" fill="#08BB00"/>
  <g clip-path="url(#bowl-clip)"><circle cx="4.62" cy="54.97" r="2.30" fill="#FAFAF7" opacity="0.69"/><circle cx="72.00" cy="12.77" r="2.30" fill="#0A0A0A" opacity="0.88"/><circle cx="51.83" cy="23.99" r="2.29" fill="#FAFAF7" opacity="0.97"/><circle cx="60.94" cy="31.76" r="2.28" fill="#0A0A0A" opacity="0.91"/><ellipse cx="29.38" cy="63.31" rx="3.65" ry="1.14" fill="#0A0A0A" opacity="0.65" transform="rotate(193.3 29.38 63.31)"/><ellipse cx="15.79" cy="20.52" rx="3.63" ry="1.14" fill="#FAFAF7" opacity="0.73" transform="rotate(134.7 15.79 20.52)"/><circle cx="20.27" cy="83.28" r="2.27" fill="#FAFAF7" opacity="0.80"/><circle cx="28.02" cy="29.91" r="2.26" fill="#0A0A0A" opacity="0.68"/><circle cx="67.12" cy="86.80" r="2.25" fill="#0A0A0A" opacity="0.90"/><circle cx="56.29" cy="66.33" r="2.25" fill="#0A0A0A" opacity="0.96"/><circle cx="22.54" cy="31.23" r="2.24" fill="#0A0A0A" opacity="0.63"/><circle cx="67.96" cy="77.13" r="2.24" fill="#0A0A0A" opacity="0.90"/><circle cx="44.42" cy="94.16" r="2.24" fill="#0A0A0A" opacity="0.61"/><circle cx="22.01" cy="59.08" r="2.23" fill="#0A0A0A" opacity="0.79"/><circle cx="48.49" cy="78.16" r="2.23" fill="#FAFAF7" opacity="0.97"/><circle cx="53.53" cy="13.43" r="2.22" fill="#0A0A0A" opacity="0.99"/><ellipse cx="56.93" cy="37.55" rx="3.56" ry="1.11" fill="#0A0A0A" opacity="0.98" transform="rotate(22.0 56.93 37.55)"/><ellipse cx="54.38" cy="31.24" rx="3.56" ry="1.11" fill="#0A0A0A" opacity="0.80" transform="rotate(316.1 54.38 31.24)"/><circle cx="69.33" cy="42.97" r="2.22" fill="#0A0A0A" opacity="0.66"/><ellipse cx="17.58" cy="67.33" rx="3.54" ry="1.11" fill="#0A0A0A" opacity="0.85" transform="rotate(80.8 17.58 67.33)"/><circle cx="29.36" cy="14.19" r="2.21" fill="#FAFAF7" opacity="1.00"/><ellipse cx="8.41" cy="38.67" rx="3.53" ry="1.10" fill="#FAFAF7" opacity="0.62" transform="rotate(152.5 8.41 38.67)"/><circle cx="52.14" cy="49.92" r="2.19" fill="#FAFAF7" opacity="0.75"/><circle cx="19.64" cy="83.27" r="2.19" fill="#0A0A0A" opacity="0.59"/><circle cx="24.24" cy="55.05" r="2.18" fill="#FAFAF7" opacity="0.90"/><circle cx="79.51" cy="69.46" r="2.17" fill="#0A0A0A" opacity="0.76"/><circle cx="35.78" cy="7.97" r="2.17" fill="#FAFAF7" opacity="0.91"/><circle cx="21.12" cy="62.23" r="2.17" fill="#FAFAF7" opacity="0.88"/><ellipse cx="29.24" cy="40.24" rx="3.46" ry="1.08" fill="#0A0A0A" opacity="0.98" transform="rotate(266.7 29.24 40.24)"/><circle cx="50.12" cy="94.61" r="2.16" fill="#FAFAF7" opacity="0.69"/><circle cx="88.35" cy="74.95" r="2.16" fill="#FAFAF7" opacity="0.68"/><circle cx="15.70" cy="24.81" r="2.16" fill="#0A0A0A" opacity="0.57"/><circle cx="20.59" cy="71.56" r="2.15" fill="#0A0A0A" opacity="0.68"/><circle cx="78.01" cy="36.27" r="2.15" fill="#FAFAF7" opacity="0.87"/><circle cx="88.49" cy="46.06" r="2.14" fill="#FAFAF7" opacity="0.65"/><circle cx="12.21" cy="36.25" r="2.13" fill="#FAFAF7" opacity="0.82"/><circle cx="20.75" cy="35.62" r="2.13" fill="#FAFAF7" opacity="0.57"/><circle cx="61.30" cy="33.73" r="2.10" fill="#FAFAF7" opacity="0.55"/><circle cx="67.36" cy="68.72" r="2.08" fill="#0A0A0A" opacity="1.00"/><circle cx="66.96" cy="32.18" r="2.08" fill="#FAFAF7" opacity="0.87"/><circle cx="67.78" cy="38.04" r="2.07" fill="#0A0A0A" opacity="0.93"/><ellipse cx="64.43" cy="46.68" rx="3.31" ry="1.03" fill="#0A0A0A" opacity="0.78" transform="rotate(227.2 64.43 46.68)"/><ellipse cx="41.42" cy="87.12" rx="3.31" ry="1.03" fill="#0A0A0A" opacity="0.93" transform="rotate(220.7 41.42 87.12)"/><circle cx="10.02" cy="67.91" r="2.07" fill="#0A0A0A" opacity="0.68"/><circle cx="29.84" cy="47.53" r="2.06" fill="#FAFAF7" opacity="0.81"/><circle cx="77.33" cy="83.28" r="2.02" fill="#FAFAF7" opacity="0.76"/><ellipse cx="62.27" cy="36.37" rx="3.23" ry="1.01" fill="#0A0A0A" opacity="0.95" transform="rotate(222.4 62.27 36.37)"/><ellipse cx="19.23" cy="53.90" rx="3.18" ry="0.99" fill="#FAFAF7" opacity="0.71" transform="rotate(230.6 19.23 53.90)"/><circle cx="85.71" cy="77.92" r="1.99" fill="#FAFAF7" opacity="0.89"/><circle cx="18.28" cy="62.32" r="1.99" fill="#0A0A0A" opacity="0.91"/><circle cx="61.47" cy="7.21" r="1.98" fill="#FAFAF7" opacity="0.91"/><circle cx="78.03" cy="58.89" r="1.98" fill="#FAFAF7" opacity="0.65"/><circle cx="38.95" cy="80.20" r="1.97" fill="#FAFAF7" opacity="0.79"/><ellipse cx="67.37" cy="13.96" rx="3.15" ry="0.98" fill="#FAFAF7" opacity="0.75" transform="rotate(60.1 67.37 13.96)"/><ellipse cx="62.62" cy="29.46" rx="3.13" ry="0.98" fill="#0A0A0A" opacity="0.88" transform="rotate(338.0 62.62 29.46)"/><circle cx="72.94" cy="66.92" r="1.95" fill="#FAFAF7" opacity="0.94"/><ellipse cx="40.79" cy="62.28" rx="3.12" ry="0.97" fill="#0A0A0A" opacity="0.85" transform="rotate(70.5 40.79 62.28)"/><circle cx="23.09" cy="54.58" r="1.93" fill="#FAFAF7" opacity="0.85"/><ellipse cx="58.33" cy="26.56" rx="3.05" ry="0.95" fill="#0A0A0A" opacity="0.77" transform="rotate(77.9 58.33 26.56)"/><circle cx="37.65" cy="87.27" r="1.90" fill="#FAFAF7" opacity="0.92"/><circle cx="21.16" cy="26.29" r="1.88" fill="#FAFAF7" opacity="0.74"/><circle cx="55.73" cy="28.15" r="1.88" fill="#0A0A0A" opacity="0.56"/><ellipse cx="58.76" cy="15.56" rx="3.00" ry="0.94" fill="#FAFAF7" opacity="0.69" transform="rotate(136.8 58.76 15.56)"/><circle cx="77.51" cy="22.64" r="1.86" fill="#0A0A0A" opacity="0.95"/><circle cx="53.21" cy="77.80" r="1.85" fill="#FAFAF7" opacity="0.75"/><circle cx="48.98" cy="77.92" r="1.83" fill="#0A0A0A" opacity="0.79"/><circle cx="73.84" cy="17.74" r="1.83" fill="#FAFAF7" opacity="0.90"/><circle cx="37.18" cy="49.27" r="1.83" fill="#0A0A0A" opacity="0.56"/><circle cx="24.00" cy="64.70" r="1.82" fill="#FAFAF7" opacity="0.82"/><circle cx="13.99" cy="72.18" r="1.80" fill="#0A0A0A" opacity="0.75"/><circle cx="83.28" cy="58.42" r="1.80" fill="#0A0A0A" opacity="0.99"/><ellipse cx="51.80" cy="17.22" rx="2.84" ry="0.89" fill="#FAFAF7" opacity="0.72" transform="rotate(164.0 51.80 17.22)"/><ellipse cx="39.03" cy="59.52" rx="2.82" ry="0.88" fill="#0A0A0A" opacity="0.93" transform="rotate(63.9 39.03 59.52)"/><ellipse cx="43.97" cy="45.10" rx="2.81" ry="0.88" fill="#FAFAF7" opacity="0.76" transform="rotate(150.1 43.97 45.10)"/><circle cx="28.59" cy="11.90" r="1.76" fill="#0A0A0A" opacity="0.99"/><circle cx="79.05" cy="81.66" r="1.76" fill="#FAFAF7" opacity="0.83"/><circle cx="75.81" cy="19.50" r="1.74" fill="#0A0A0A" opacity="0.71"/><circle cx="16.08" cy="51.18" r="1.73" fill="#0A0A0A" opacity="0.95"/><circle cx="11.38" cy="63.18" r="1.72" fill="#FAFAF7" opacity="0.74"/><circle cx="45.11" cy="93.06" r="1.69" fill="#FAFAF7" opacity="0.79"/><circle cx="85.75" cy="36.31" r="1.68" fill="#FAFAF7" opacity="0.75"/><circle cx="20.09" cy="67.31" r="1.68" fill="#0A0A0A" opacity="0.64"/><circle cx="35.68" cy="70.31" r="1.64" fill="#0A0A0A" opacity="0.86"/><circle cx="67.80" cy="34.93" r="1.63" fill="#FAFAF7" opacity="0.64"/><circle cx="33.25" cy="71.57" r="1.61" fill="#0A0A0A" opacity="0.67"/><circle cx="51.83" cy="57.10" r="1.61" fill="#FAFAF7" opacity="0.79"/><circle cx="65.01" cy="27.42" r="1.60" fill="#0A0A0A" opacity="0.57"/><ellipse cx="88.52" cy="53.52" rx="2.55" ry="0.80" fill="#FAFAF7" opacity="0.96" transform="rotate(300.4 88.52 53.52)"/><circle cx="27.30" cy="62.36" r="1.57" fill="#FAFAF7" opacity="0.70"/><circle cx="13.15" cy="40.42" r="1.56" fill="#FAFAF7" opacity="0.57"/><ellipse cx="55.69" cy="54.28" rx="2.50" ry="0.78" fill="#FAFAF7" opacity="0.65" transform="rotate(312.3 55.69 54.28)"/><circle cx="71.98" cy="34.61" r="1.56" fill="#0A0A0A" opacity="0.97"/><circle cx="54.11" cy="18.58" r="1.53" fill="#0A0A0A" opacity="0.89"/><circle cx="22.77" cy="76.99" r="1.53" fill="#FAFAF7" opacity="0.84"/><circle cx="62.84" cy="23.30" r="1.53" fill="#FAFAF7" opacity="0.71"/><circle cx="40.82" cy="83.46" r="1.51" fill="#0A0A0A" opacity="0.94"/><circle cx="58.22" cy="29.31" r="1.51" fill="#FAFAF7" opacity="0.84"/><circle cx="23.06" cy="34.72" r="1.51" fill="#0A0A0A" opacity="0.76"/><circle cx="57.95" cy="66.92" r="1.50" fill="#0A0A0A" opacity="0.68"/><circle cx="67.04" cy="17.22" r="1.50" fill="#0A0A0A" opacity="0.59"/><circle cx="33.14" cy="66.94" r="1.49" fill="#0A0A0A" opacity="0.85"/><circle cx="26.72" cy="61.62" r="1.49" fill="#0A0A0A" opacity="0.90"/><circle cx="69.86" cy="53.15" r="1.49" fill="#0A0A0A" opacity="0.60"/><circle cx="31.78" cy="86.24" r="1.46" fill="#FAFAF7" opacity="0.92"/><circle cx="33.12" cy="12.46" r="1.45" fill="#FAFAF7" opacity="0.86"/><circle cx="19.19" cy="67.24" r="1.45" fill="#0A0A0A" opacity="0.98"/><circle cx="47.43" cy="31.69" r="1.44" fill="#FAFAF7" opacity="0.91"/><circle cx="75.42" cy="60.70" r="1.44" fill="#0A0A0A" opacity="0.65"/><ellipse cx="82.52" cy="66.57" rx="2.28" ry="0.71" fill="#0A0A0A" opacity="0.55" transform="rotate(282.6 82.52 66.57)"/><circle cx="54.27" cy="54.12" r="1.42" fill="#FAFAF7" opacity="0.90"/><circle cx="55.11" cy="26.77" r="1.41" fill="#0A0A0A" opacity="0.84"/><circle cx="75.46" cy="85.33" r="1.41" fill="#FAFAF7" opacity="0.69"/><ellipse cx="21.48" cy="15.76" rx="2.24" ry="0.70" fill="#0A0A0A" opacity="0.59" transform="rotate(78.8 21.48 15.76)"/><circle cx="10.29" cy="27.72" r="1.40" fill="#0A0A0A" opacity="0.71"/><circle cx="29.58" cy="71.30" r="1.38" fill="#FAFAF7" opacity="0.87"/><circle cx="39.49" cy="32.54" r="1.37" fill="#FAFAF7" opacity="0.57"/><circle cx="74.70" cy="78.39" r="1.37" fill="#FAFAF7" opacity="0.95"/><circle cx="82.52" cy="64.10" r="1.36" fill="#0A0A0A" opacity="0.60"/><circle cx="55.91" cy="84.41" r="1.35" fill="#FAFAF7" opacity="0.84"/><circle cx="93.69" cy="42.50" r="1.35" fill="#FAFAF7" opacity="0.83"/><circle cx="29.10" cy="20.16" r="1.33" fill="#0A0A0A" opacity="0.80"/><circle cx="68.76" cy="22.81" r="1.33" fill="#FAFAF7" opacity="0.68"/><circle cx="19.50" cy="61.76" r="1.32" fill="#FAFAF7" opacity="0.76"/><circle cx="39.42" cy="81.49" r="1.31" fill="#0A0A0A" opacity="0.85"/><circle cx="29.15" cy="30.79" r="1.31" fill="#0A0A0A" opacity="0.84"/><circle cx="13.93" cy="78.53" r="1.31" fill="#0A0A0A" opacity="0.58"/><circle cx="62.54" cy="56.79" r="1.30" fill="#0A0A0A" opacity="0.78"/><circle cx="12.09" cy="48.71" r="1.29" fill="#0A0A0A" opacity="0.86"/><circle cx="57.34" cy="66.44" r="1.29" fill="#0A0A0A" opacity="0.90"/><circle cx="22.46" cy="80.16" r="1.28" fill="#FAFAF7" opacity="0.89"/><circle cx="37.92" cy="19.10" r="1.28" fill="#0A0A0A" opacity="0.77"/><circle cx="44.53" cy="95.66" r="1.27" fill="#FAFAF7" opacity="0.69"/><circle cx="38.32" cy="87.97" r="1.27" fill="#FAFAF7" opacity="0.60"/><ellipse cx="41.55" cy="19.26" rx="2.03" ry="0.63" fill="#FAFAF7" opacity="0.84" transform="rotate(31.2 41.55 19.26)"/><circle cx="43.38" cy="80.34" r="1.26" fill="#0A0A0A" opacity="0.81"/><circle cx="68.29" cy="92.12" r="1.24" fill="#FAFAF7" opacity="0.77"/><circle cx="21.45" cy="20.72" r="1.23" fill="#0A0A0A" opacity="0.64"/><ellipse cx="26.85" cy="57.02" rx="1.97" ry="0.62" fill="#0A0A0A" opacity="0.74" transform="rotate(299.6 26.85 57.02)"/><circle cx="21.85" cy="39.17" r="1.22" fill="#0A0A0A" opacity="0.77"/><circle cx="86.12" cy="30.00" r="1.20" fill="#FAFAF7" opacity="0.90"/><circle cx="21.63" cy="69.47" r="1.20" fill="#0A0A0A" opacity="0.78"/><circle cx="42.13" cy="86.31" r="1.20" fill="#FAFAF7" opacity="0.74"/><ellipse cx="38.69" cy="84.65" rx="1.92" ry="0.60" fill="#FAFAF7" opacity="0.83" transform="rotate(52.3 38.69 84.65)"/><circle cx="74.81" cy="29.74" r="1.19" fill="#0A0A0A" opacity="0.80"/><circle cx="72.75" cy="10.60" r="1.19" fill="#0A0A0A" opacity="0.89"/><circle cx="59.33" cy="60.75" r="1.18" fill="#0A0A0A" opacity="0.86"/><circle cx="28.36" cy="75.24" r="1.16" fill="#FAFAF7" opacity="0.99"/><circle cx="53.31" cy="34.54" r="1.14" fill="#FAFAF7" opacity="0.95"/><circle cx="80.05" cy="57.90" r="1.13" fill="#FAFAF7" opacity="0.95"/><circle cx="36.74" cy="23.49" r="1.12" fill="#0A0A0A" opacity="0.92"/><circle cx="6.48" cy="48.29" r="1.11" fill="#FAFAF7" opacity="0.80"/><circle cx="84.81" cy="48.34" r="1.11" fill="#0A0A0A" opacity="0.75"/><circle cx="85.60" cy="56.83" r="1.10" fill="#0A0A0A" opacity="0.78"/><ellipse cx="42.80" cy="66.64" rx="1.76" ry="0.55" fill="#0A0A0A" opacity="0.82" transform="rotate(229.5 42.80 66.64)"/><circle cx="23.34" cy="72.70" r="1.09" fill="#0A0A0A" opacity="0.93"/><circle cx="54.13" cy="92.49" r="1.09" fill="#FAFAF7" opacity="0.91"/><circle cx="57.62" cy="31.17" r="1.08" fill="#0A0A0A" opacity="0.91"/><circle cx="37.13" cy="58.43" r="1.07" fill="#0A0A0A" opacity="0.77"/><circle cx="82.08" cy="65.24" r="1.04" fill="#0A0A0A" opacity="0.93"/><circle cx="58.05" cy="61.25" r="1.04" fill="#FAFAF7" opacity="0.61"/><circle cx="64.35" cy="73.35" r="1.04" fill="#0A0A0A" opacity="0.65"/><circle cx="53.12" cy="7.07" r="1.01" fill="#0A0A0A" opacity="0.86"/><circle cx="63.94" cy="35.21" r="1.01" fill="#FAFAF7" opacity="0.70"/><circle cx="52.27" cy="68.42" r="0.97" fill="#0A0A0A" opacity="0.72"/><ellipse cx="79.08" cy="39.86" rx="1.55" ry="0.48" fill="#0A0A0A" opacity="0.88" transform="rotate(283.6 79.08 39.86)"/><circle cx="39.09" cy="30.24" r="0.97" fill="#0A0A0A" opacity="0.66"/><ellipse cx="55.19" cy="10.86" rx="1.54" ry="0.48" fill="#FAFAF7" opacity="0.66" transform="rotate(48.3 55.19 10.86)"/><circle cx="34.34" cy="83.75" r="0.96" fill="#FAFAF7" opacity="0.65"/><circle cx="87.84" cy="73.49" r="0.96" fill="#FAFAF7" opacity="0.60"/><circle cx="12.65" cy="25.76" r="0.95" fill="#FAFAF7" opacity="0.64"/><circle cx="87.19" cy="49.34" r="0.94" fill="#FAFAF7" opacity="0.58"/><ellipse cx="8.32" cy="35.81" rx="1.48" ry="0.46" fill="#0A0A0A" opacity="0.56" transform="rotate(171.7 8.32 35.81)"/><circle cx="21.44" cy="81.02" r="0.90" fill="#FAFAF7" opacity="0.96"/><circle cx="25.04" cy="86.77" r="0.90" fill="#FAFAF7" opacity="0.91"/><circle cx="67.77" cy="12.30" r="0.88" fill="#FAFAF7" opacity="0.96"/><ellipse cx="57.43" cy="77.03" rx="1.41" ry="0.44" fill="#FAFAF7" opacity="0.60" transform="rotate(76.9 57.43 77.03)"/><circle cx="43.29" cy="76.05" r="0.88" fill="#FAFAF7" opacity="0.87"/><circle cx="70.59" cy="40.00" r="0.87" fill="#0A0A0A" opacity="0.94"/><circle cx="56.30" cy="84.77" r="0.87" fill="#0A0A0A" opacity="0.59"/><circle cx="51.73" cy="52.66" r="0.86" fill="#FAFAF7" opacity="0.85"/><circle cx="57.87" cy="9.48" r="0.86" fill="#FAFAF7" opacity="0.63"/><circle cx="24.20" cy="40.56" r="0.86" fill="#FAFAF7" opacity="0.90"/><circle cx="68.77" cy="45.54" r="0.85" fill="#FAFAF7" opacity="0.80"/><circle cx="64.91" cy="86.12" r="0.85" fill="#0A0A0A" opacity="0.61"/><circle cx="46.51" cy="83.69" r="0.84" fill="#FAFAF7" opacity="0.71"/><circle cx="25.76" cy="88.01" r="0.83" fill="#FAFAF7" opacity="0.69"/><circle cx="52.73" cy="12.46" r="0.83" fill="#FAFAF7" opacity="0.70"/><circle cx="60.48" cy="34.99" r="0.83" fill="#FAFAF7" opacity="0.73"/><circle cx="45.01" cy="74.42" r="0.83" fill="#0A0A0A" opacity="0.96"/><circle cx="84.83" cy="74.60" r="0.83" fill="#0A0A0A" opacity="0.80"/><circle cx="73.75" cy="71.33" r="0.81" fill="#FAFAF7" opacity="0.97"/><circle cx="19.43" cy="62.24" r="0.79" fill="#0A0A0A" opacity="0.78"/><circle cx="64.87" cy="38.34" r="0.79" fill="#FAFAF7" opacity="0.97"/><circle cx="76.61" cy="45.20" r="0.78" fill="#FAFAF7" opacity="0.57"/><circle cx="6.33" cy="47.84" r="0.77" fill="#FAFAF7" opacity="0.98"/><circle cx="87.07" cy="73.42" r="0.77" fill="#FAFAF7" opacity="0.63"/><circle cx="43.04" cy="14.06" r="0.76" fill="#FAFAF7" opacity="0.97"/><circle cx="24.89" cy="53.72" r="0.76" fill="#0A0A0A" opacity="0.75"/><circle cx="44.12" cy="27.65" r="0.74" fill="#0A0A0A" opacity="0.95"/><circle cx="51.53" cy="40.28" r="0.73" fill="#0A0A0A" opacity="0.90"/><circle cx="61.88" cy="83.98" r="0.73" fill="#0A0A0A" opacity="0.95"/><circle cx="73.26" cy="89.39" r="0.72" fill="#FAFAF7" opacity="0.71"/><circle cx="50.23" cy="59.99" r="0.71" fill="#FAFAF7" opacity="0.79"/><circle cx="85.50" cy="67.82" r="0.70" fill="#0A0A0A" opacity="0.97"/><circle cx="60.57" cy="41.06" r="0.69" fill="#FAFAF7" opacity="0.79"/><circle cx="39.02" cy="90.87" r="0.68" fill="#0A0A0A" opacity="0.84"/><circle cx="37.31" cy="14.25" r="0.67" fill="#FAFAF7" opacity="0.85"/><circle cx="56.73" cy="49.95" r="0.66" fill="#0A0A0A" opacity="0.87"/><circle cx="83.10" cy="58.84" r="0.65" fill="#FAFAF7" opacity="0.69"/><circle cx="68.53" cy="53.74" r="0.65" fill="#FAFAF7" opacity="0.65"/><circle cx="28.92" cy="82.79" r="0.64" fill="#FAFAF7" opacity="0.80"/><circle cx="86.23" cy="75.23" r="0.64" fill="#FAFAF7" opacity="0.55"/><circle cx="81.86" cy="31.37" r="0.64" fill="#FAFAF7" opacity="0.87"/><circle cx="27.59" cy="64.29" r="0.64" fill="#0A0A0A" opacity="0.85"/><circle cx="28.28" cy="76.61" r="0.62" fill="#0A0A0A" opacity="0.79"/><circle cx="20.95" cy="44.46" r="0.62" fill="#FAFAF7" opacity="0.82"/><circle cx="44.54" cy="88.99" r="0.62" fill="#0A0A0A" opacity="0.81"/><circle cx="65.66" cy="71.55" r="0.61" fill="#FAFAF7" opacity="0.64"/><circle cx="90.87" cy="55.40" r="0.59" fill="#FAFAF7" opacity="0.67"/><circle cx="84.81" cy="76.92" r="0.57" fill="#0A0A0A" opacity="0.75"/><circle cx="25.04" cy="16.29" r="0.56" fill="#0A0A0A" opacity="0.65"/><circle cx="62.00" cy="51.40" r="0.55" fill="#FAFAF7" opacity="0.97"/><circle cx="28.19" cy="37.74" r="0.55" fill="#FAFAF7" opacity="0.98"/><circle cx="85.25" cy="26.54" r="0.55" fill="#FAFAF7" opacity="0.70"/><circle cx="91.02" cy="49.84" r="0.55" fill="#0A0A0A" opacity="0.92"/><circle cx="52.42" cy="92.97" r="0.53" fill="#FAFAF7" opacity="0.77"/><circle cx="89.85" cy="44.19" r="0.53" fill="#0A0A0A" opacity="0.93"/><circle cx="10.16" cy="59.82" r="0.52" fill="#FAFAF7" opacity="0.82"/><circle cx="25.82" cy="85.55" r="0.52" fill="#0A0A0A" opacity="0.79"/><circle cx="54.59" cy="64.81" r="0.51" fill="#FAFAF7" opacity="0.75"/><circle cx="51.91" cy="40.07" r="0.49" fill="#0A0A0A" opacity="0.67"/><circle cx="32.77" cy="32.12" r="0.48" fill="#0A0A0A" opacity="0.66"/><circle cx="48.15" cy="4.14" r="0.48" fill="#FAFAF7" opacity="0.80"/><circle cx="57.06" cy="71.36" r="0.47" fill="#0A0A0A" opacity="0.62"/><circle cx="50.03" cy="86.10" r="0.47" fill="#0A0A0A" opacity="0.84"/><circle cx="67.22" cy="74.18" r="0.47" fill="#0A0A0A" opacity="0.80"/><circle cx="78.86" cy="32.64" r="0.46" fill="#FAFAF7" opacity="0.55"/><circle cx="73.95" cy="33.01" r="0.46" fill="#FAFAF7" opacity="0.99"/><circle cx="23.42" cy="55.45" r="0.46" fill="#0A0A0A" opacity="0.65"/><circle cx="35.10" cy="29.11" r="0.45" fill="#FAFAF7" opacity="0.82"/></g>
  <g clip-path="url(#bowl-clip)" opacity="0.85">
        <circle cx="50" cy="50" r="14" fill="none" stroke="#0A0A0A" stroke-opacity="0.55" stroke-width="0.6"/>
        <circle cx="50" cy="50" r="9" fill="none" stroke="#0A0A0A" stroke-opacity="0.35" stroke-width="0.5"/>
        <circle cx="50" cy="50" r="2.5" fill="#0A0A0A" fill-opacity="0.75"/>
        <line x1="50" y1="36" x2="50" y2="41" stroke="#0A0A0A" stroke-opacity="0.5" stroke-width="0.7" transform="rotate(0 50 50)"/>
        <line x1="50" y1="36" x2="50" y2="41" stroke="#0A0A0A" stroke-opacity="0.5" stroke-width="0.7" transform="rotate(90 50 50)"/>
        <line x1="50" y1="36" x2="50" y2="41" stroke="#0A0A0A" stroke-opacity="0.5" stroke-width="0.7" transform="rotate(180 50 50)"/>
        <line x1="50" y1="36" x2="50" y2="41" stroke="#0A0A0A" stroke-opacity="0.5" stroke-width="0.7" transform="rotate(270 50 50)"/>
      </g>
  <circle cx="50" cy="50" r="48" fill="url(#bowl-shine)"/>
  <circle cx="50" cy="50" r="48" fill="none" stroke="rgba(0,0,0,0.35)" stroke-width="0.6"/>
</svg>